<svg xmlns="http://www.w3.org/2000/svg" width="1600" height="880" viewBox="0 0 1600 880" role="img" aria-labelledby="title desc"><title id="title">gpt-6-astra A/B 迭代通过率</title><desc id="desc">v50 至 e8b16/v2-rc1 · 逐例人工结论</desc><rect width="1600" height="880" fill="#F5F3EE"/><rect x="55" y="110" width="1490" height="665" rx="4" fill="#FBFAF7" stroke="#D8D4CC"/><g font-family="Charter,Georgia,Times New Roman,STSong,Songti SC,Noto Serif CJK SC,serif"><text x="780" y="60" text-anchor="middle" font-size="32" font-weight="500" fill="#2E3437">gpt-6-astra A/B 迭代通过率</text><text x="780" y="92" text-anchor="middle" font-size="20" fill="#6F7476">v50 至 e8b16/v2-rc1 · 逐例人工结论</text><line x1="150" y1="710.0" x2="1410" y2="710.0" stroke="#D8D4CC" stroke-width="1"/><text x="132" y="719.0" text-anchor="end" font-size="24" fill="#4E565A">0%</text><line x1="150" y1="600.0" x2="1410" y2="600.0" stroke="#D8D4CC" stroke-width="1"/><text x="132" y="609.0" text-anchor="end" font-size="24" fill="#4E565A">20%</text><line x1="150" y1="490.0" x2="1410" y2="490.0" stroke="#D8D4CC" stroke-width="1"/><text x="132" y="499.0" text-anchor="end" font-size="24" fill="#4E565A">40%</text><line x1="150" y1="380.0" x2="1410" y2="380.0" stroke="#D8D4CC" stroke-width="1"/><text x="132" y="389.0" text-anchor="end" font-size="24" fill="#4E565A">60%</text><line x1="150" y1="270.0" x2="1410" y2="270.0" stroke="#D8D4CC" stroke-width="1"/><text x="132" y="279.0" text-anchor="end" font-size="24" fill="#4E565A">80%</text><line x1="150" y1="160.0" x2="1410" y2="160.0" stroke="#D8D4CC" stroke-width="1"/><text x="132" y="169.0" text-anchor="end" font-size="24" fill="#4E565A">100%</text><line x1="150" y1="160" x2="150" y2="710" stroke="#8C8A84" stroke-width="1.5"/><line x1="150" y1="710" x2="1410" y2="710" stroke="#8C8A84" stroke-width="1.5"/><line x1="150.0" y1="710" x2="150.0" y2="716" stroke="#8C8A84"/><text x="150.0" y="750" text-anchor="middle" font-size="24" fill="#4E565A">v50</text><line x1="290.0" y1="710" x2="290.0" y2="716" stroke="#8C8A84"/><text x="290.0" y="750" text-anchor="middle" font-size="24" fill="#4E565A">e1b1</text><line x1="430.0" y1="710" x2="430.0" y2="716" stroke="#8C8A84"/><text x="430.0" y="750" text-anchor="middle" font-size="24" fill="#4E565A">e1b2</text><line x1="570.0" y1="710" x2="570.0" y2="716" stroke="#8C8A84"/><text x="570.0" y="750" text-anchor="middle" font-size="24" fill="#4E565A">e1b3</text><line x1="710.0" y1="710" x2="710.0" y2="716" stroke="#8C8A84"/><text x="710.0" y="750" text-anchor="middle" font-size="24" fill="#4E565A">e1b4</text><line x1="850.0" y1="710" x2="850.0" y2="716" stroke="#8C8A84"/><text x="850.0" y="750" text-anchor="middle" font-size="24" fill="#4E565A">e1b5/v1-rc1</text><line x1="990.0" y1="710" x2="990.0" y2="716" stroke="#8C8A84"/><text x="990.0" y="750" text-anchor="middle" font-size="24" fill="#4E565A">e2b12</text><line x1="1130.0" y1="710" x2="1130.0" y2="716" stroke="#8C8A84"/><text x="1130.0" y="750" text-anchor="middle" font-size="24" fill="#4E565A">e2b15</text><line x1="1270.0" y1="710" x2="1270.0" y2="716" stroke="#8C8A84"/><text x="1270.0" y="750" text-anchor="middle" font-size="24" fill="#4E565A">e2b19/v1</text><line x1="1410.0" y1="710" x2="1410.0" y2="716" stroke="#8C8A84"/><text x="1410.0" y="750" text-anchor="middle" font-size="24" fill="#4E565A">e8b16/v2-rc1</text><text x="780.0" y="815" text-anchor="middle" font-size="24" fill="#4E565A">提示词版本</text><text x="40" y="435" transform="rotate(-90 40 435)" text-anchor="middle" font-size="24" fill="#4E565A">案例通过率</text><polyline points="150.0,710.0 290.0,710.0 430.0,710.0 570.0,572.5 710.0,572.5 850.0,435.0 990.0,435.0 1130.0,435.0 1270.0,435.0 1410.0,297.5" fill="none" stroke="#667C91" stroke-width="3.5" stroke-linecap="round" stroke-linejoin="round"/><circle cx="150.0" cy="710.0" r="7" fill="#667C91" stroke="#FBFAF7" stroke-width="2"/><text x="150.0" y="690.0" text-anchor="middle" font-size="24" font-weight="500" fill="#667C91">0/4</text><circle cx="290.0" cy="710.0" r="7" fill="#667C91" stroke="#FBFAF7" stroke-width="2"/><text x="290.0" y="690.0" text-anchor="middle" font-size="24" font-weight="500" fill="#667C91">0/4</text><circle cx="430.0" cy="710.0" r="7" fill="#667C91" stroke="#FBFAF7" stroke-width="2"/><text x="430.0" y="690.0" text-anchor="middle" font-size="24" font-weight="500" fill="#667C91">0/4</text><circle cx="570.0" cy="572.5" r="7" fill="#667C91" stroke="#FBFAF7" stroke-width="2"/><text x="570.0" y="622.5" text-anchor="middle" font-size="24" font-weight="500" fill="#667C91">1/4</text><circle cx="710.0" cy="572.5" r="7" fill="#667C91" stroke="#FBFAF7" stroke-width="2"/><text x="710.0" y="622.5" text-anchor="middle" font-size="24" font-weight="500" fill="#667C91">1/4</text><circle cx="850.0" cy="435.0" r="7" fill="#667C91" stroke="#FBFAF7" stroke-width="2"/><text x="850.0" y="485.0" text-anchor="middle" font-size="24" font-weight="500" fill="#667C91">2/4</text><circle cx="990.0" cy="435.0" r="7" fill="#667C91" stroke="#FBFAF7" stroke-width="2"/><text x="990.0" y="485.0" text-anchor="middle" font-size="24" font-weight="500" fill="#667C91">2/4</text><circle cx="1130.0" cy="435.0" r="7" fill="#667C91" stroke="#FBFAF7" stroke-width="2"/><text x="1130.0" y="485.0" text-anchor="middle" font-size="24" font-weight="500" fill="#667C91">2/4</text><circle cx="1270.0" cy="435.0" r="7" fill="#667C91" stroke="#FBFAF7" stroke-width="2"/><text x="1270.0" y="485.0" text-anchor="middle" font-size="24" font-weight="500" fill="#667C91">2/4</text><circle cx="1410.0" cy="297.5" r="7" fill="#667C91" stroke="#FBFAF7" stroke-width="2"/><text x="1410.0" y="339.5" text-anchor="middle" font-size="24" font-weight="500" fill="#667C91">3/4 ×2</text><polyline points="150.0,493.3 850.0,297.5 990.0,435.0 1130.0,366.2 1270.0,276.7 1410.0,248.0" fill="none" stroke="#B07D62" stroke-width="3.5" stroke-linecap="round" stroke-linejoin="round"/><rect x="143.0" y="486.3" width="14" height="14" rx="2" fill="#B07D62" stroke="#FBFAF7" stroke-width="2"/><text x="150.0" y="473.3" text-anchor="middle" font-size="24" font-weight="500" fill="#B07D62">26/66</text><rect x="843.0" y="290.5" width="14" height="14" rx="2" fill="#B07D62" stroke="#FBFAF7" stroke-width="2"/><text x="850.0" y="277.5" text-anchor="middle" font-size="24" font-weight="500" fill="#B07D62">6/8</text><rect x="983.0" y="428.0" width="14" height="14" rx="2" fill="#B07D62" stroke="#FBFAF7" stroke-width="2"/><text x="990.0" y="415.0" text-anchor="middle" font-size="24" font-weight="500" fill="#B07D62">4/8</text><rect x="1123.0" y="359.2" width="14" height="14" rx="2" fill="#B07D62" stroke="#FBFAF7" stroke-width="2"/><text x="1130.0" y="346.2" text-anchor="middle" font-size="24" font-weight="500" fill="#B07D62">5/8</text><rect x="1263.0" y="269.7" width="14" height="14" rx="2" fill="#B07D62" stroke="#FBFAF7" stroke-width="2"/><text x="1270.0" y="256.7" text-anchor="middle" font-size="24" font-weight="500" fill="#B07D62">52/66</text><rect x="1403.0" y="241.0" width="14" height="14" rx="2" fill="#B07D62" stroke="#FBFAF7" stroke-width="2"/><text x="1410.0" y="226.0" text-anchor="middle" font-size="24" font-weight="500" fill="#B07D62">42/50†</text><line x1="1060" y1="135" x2="1094" y2="135" stroke="#667C91" stroke-width="3.5"/><circle cx="1077" cy="135" r="7" fill="#667C91"/><text x="1105" y="144" font-size="24" fill="#4E565A">A cases</text><line x1="1240" y1="135" x2="1274" y2="135" stroke="#B07D62" stroke-width="3.5"/><rect x="1250" y="128" width="14" height="14" rx="2" fill="#B07D62"/><text x="1285" y="144" font-size="24" fill="#4E565A">B cases</text><text x="780" y="858" text-anchor="middle" font-size="16" fill="#6F7476">A：此前原为 3/4 的点更正为 2/4，其他历史点不变；e8b16 的 ×2 表示两次 fresh run 同分。B：†=非云 42/50；云端=23/48 重复尝试。</text></g></svg>
