<?xml version="1.0" encoding="UTF-8"?>
<svg xmlns="http://www.w3.org/2000/svg" xmlns:xlink="http://www.w3.org/1999/xlink" font-size="10px" font-family="sans-serif" width="370" height="370" viewBox="-5.5 -5.5 370 370"><g shape-rendering="crispEdges"><path fill="white" stroke="none" d="M -0.5 -0.5 L 360.5 -0.5 360.5 360.5 -0.5 360.5 z"/></g><g shape-rendering="crispEdges"><path fill="rgb(96, 255, 160)" stroke="none" d="M -0.5 -0.5 L 36.5 -0.5 36.5 36.5 -0.5 36.5 z"/><path fill="rgb(96, 255, 160)" stroke="none" d="M 35.5 -0.5 L 72.5 -0.5 72.5 36.5 35.5 36.5 z"/><path fill="rgb(96, 255, 160)" stroke="none" d="M 71.5 -0.5 L 108.5 -0.5 108.5 36.5 71.5 36.5 z"/><path fill="rgb(96, 255, 160)" stroke="none" d="M 107.5 -0.5 L 144.5 -0.5 144.5 36.5 107.5 36.5 z"/><path fill="rgb(96, 255, 160)" stroke="none" d="M 143.5 -0.5 L 180.5 -0.5 180.5 36.5 143.5 36.5 z"/><path fill="rgb(96, 255, 160)" stroke="none" d="M 179.5 -0.5 L 216.5 -0.5 216.5 36.5 179.5 36.5 z"/><path fill="rgb(96, 255, 160)" stroke="none" d="M 215.5 -0.5 L 252.5 -0.5 252.5 36.5 215.5 36.5 z"/><path fill="rgb(96, 255, 160)" stroke="none" d="M 251.5 -0.5 L 288.5 -0.5 288.5 36.5 251.5 36.5 z"/><path fill="rgb(96, 255, 160)" stroke="none" d="M 287.5 -0.5 L 324.5 -0.5 324.5 36.5 287.5 36.5 z"/><path fill="rgb(96, 255, 160)" stroke="none" d="M 323.5 -0.5 L 360.5 -0.5 360.5 36.5 323.5 36.5 z"/><path fill="rgb(96, 255, 160)" stroke="none" d="M -0.5 35.5 L 36.5 35.5 36.5 72.5 -0.5 72.5 z"/><path fill="rgb(96, 255, 160)" stroke="none" d="M 35.5 35.5 L 72.5 35.5 72.5 72.5 35.5 72.5 z"/><path fill="rgb(96, 255, 160)" stroke="none" d="M 71.5 35.5 L 108.5 35.5 108.5 72.5 71.5 72.5 z"/><path fill="rgb(96, 255, 160)" stroke="none" d="M 107.5 35.5 L 144.5 35.5 144.5 72.5 107.5 72.5 z"/><path fill="rgb(96, 255, 160)" stroke="none" d="M 143.5 35.5 L 180.5 35.5 180.5 72.5 143.5 72.5 z"/><path fill="rgb(96, 255, 160)" stroke="none" d="M 179.5 35.5 L 216.5 35.5 216.5 72.5 179.5 72.5 z"/><path fill="rgb(96, 255, 160)" stroke="none" d="M 215.5 35.5 L 252.5 35.5 252.5 72.5 215.5 72.5 z"/><path fill="rgb(96, 255, 160)" stroke="none" d="M 251.5 35.5 L 288.5 35.5 288.5 72.5 251.5 72.5 z"/><path fill="rgb(96, 255, 160)" stroke="none" d="M 287.5 35.5 L 324.5 35.5 324.5 72.5 287.5 72.5 z"/><path fill="rgb(96, 255, 160)" stroke="none" d="M 323.5 35.5 L 360.5 35.5 360.5 72.5 323.5 72.5 z"/><path fill="rgb(96, 255, 160)" stroke="none" d="M 71.5 71.5 L 108.5 71.5 108.5 108.5 71.5 108.5 z"/><path fill="rgb(96, 255, 160)" stroke="none" d="M 107.5 71.5 L 144.5 71.5 144.5 108.5 107.5 108.5 z"/><path fill="rgb(96, 255, 160)" stroke="none" d="M 143.5 71.5 L 180.5 71.5 180.5 108.5 143.5 108.5 z"/><path fill="rgb(96, 255, 160)" stroke="none" d="M 179.5 71.5 L 216.5 71.5 216.5 108.5 179.5 108.5 z"/><path fill="rgb(96, 255, 160)" stroke="none" d="M 215.5 71.5 L 252.5 71.5 252.5 108.5 215.5 108.5 z"/><path fill="rgb(96, 255, 160)" stroke="none" d="M 251.5 71.5 L 288.5 71.5 288.5 108.5 251.5 108.5 z"/><path fill="rgb(96, 255, 160)" stroke="none" d="M 287.5 71.5 L 324.5 71.5 324.5 108.5 287.5 108.5 z"/><path fill="rgb(96, 255, 160)" stroke="none" d="M 323.5 71.5 L 360.5 71.5 360.5 108.5 323.5 108.5 z"/><path fill="rgb(255, 160, 160)" stroke="none" d="M -0.5 107.5 L 36.5 107.5 36.5 144.5 -0.5 144.5 z"/><path fill="rgb(96, 255, 160)" stroke="none" d="M 143.5 107.5 L 180.5 107.5 180.5 144.5 143.5 144.5 z"/><path fill="rgb(96, 255, 160)" stroke="none" d="M 179.5 107.5 L 216.5 107.5 216.5 144.5 179.5 144.5 z"/><path fill="rgb(96, 255, 160)" stroke="none" d="M 215.5 107.5 L 252.5 107.5 252.5 144.5 215.5 144.5 z"/><path fill="rgb(96, 255, 160)" stroke="none" d="M 251.5 107.5 L 288.5 107.5 288.5 144.5 251.5 144.5 z"/><path fill="rgb(96, 255, 160)" stroke="none" d="M 287.5 107.5 L 324.5 107.5 324.5 144.5 287.5 144.5 z"/><path fill="rgb(96, 255, 160)" stroke="none" d="M 323.5 107.5 L 360.5 107.5 360.5 144.5 323.5 144.5 z"/><path fill="rgb(96, 255, 160)" stroke="none" d="M 143.5 143.5 L 180.5 143.5 180.5 180.5 143.5 180.5 z"/><path fill="rgb(96, 255, 160)" stroke="none" d="M 179.5 143.5 L 216.5 143.5 216.5 180.5 179.5 180.5 z"/><path fill="rgb(96, 255, 160)" stroke="none" d="M 215.5 143.5 L 252.5 143.5 252.5 180.5 215.5 180.5 z"/></g><g shape-rendering="crispEdges"><path fill="rgb(96, 96, 96)" stroke="none" d="M -0.5 -0.5 L 36.5 -0.5 36.5 36.5 -0.5 36.5 z"/><path fill="rgb(96, 96, 96)" stroke="none" d="M 71.5 -0.5 L 108.5 -0.5 108.5 36.5 71.5 36.5 z"/><path fill="rgb(96, 96, 96)" stroke="none" d="M 107.5 -0.5 L 144.5 -0.5 144.5 36.5 107.5 36.5 z"/><path fill="rgb(96, 96, 96)" stroke="none" d="M 215.5 -0.5 L 252.5 -0.5 252.5 36.5 215.5 36.5 z"/><path fill="rgb(96, 96, 96)" stroke="none" d="M 251.5 -0.5 L 288.5 -0.5 288.5 36.5 251.5 36.5 z"/><path fill="rgb(96, 96, 96)" stroke="none" d="M 323.5 -0.5 L 360.5 -0.5 360.5 36.5 323.5 36.5 z"/><path fill="rgb(96, 96, 96)" stroke="none" d="M -0.5 35.5 L 36.5 35.5 36.5 72.5 -0.5 72.5 z"/><path fill="rgb(96, 96, 96)" stroke="none" d="M 143.5 35.5 L 180.5 35.5 180.5 72.5 143.5 72.5 z"/><path fill="rgb(96, 96, 96)" stroke="none" d="M 179.5 35.5 L 216.5 35.5 216.5 72.5 179.5 72.5 z"/><path fill="rgb(96, 96, 96)" stroke="none" d="M 323.5 35.5 L 360.5 35.5 360.5 72.5 323.5 72.5 z"/><path fill="rgb(96, 96, 96)" stroke="none" d="M 71.5 71.5 L 108.5 71.5 108.5 108.5 71.5 108.5 z"/><path fill="rgb(96, 96, 96)" stroke="none" d="M 107.5 71.5 L 144.5 71.5 144.5 108.5 107.5 108.5 z"/><path fill="rgb(96, 96, 96)" stroke="none" d="M 215.5 71.5 L 252.5 71.5 252.5 108.5 215.5 108.5 z"/><path fill="rgb(96, 96, 96)" stroke="none" d="M 251.5 71.5 L 288.5 71.5 288.5 108.5 251.5 108.5 z"/><path fill="rgb(192, 0, 0)" stroke="none" d="M -0.5 107.5 L 36.5 107.5 36.5 144.5 -0.5 144.5 z"/><path fill="rgb(96, 96, 96)" stroke="none" d="M 143.5 107.5 L 180.5 107.5 180.5 144.5 143.5 144.5 z"/><path fill="rgb(96, 96, 96)" stroke="none" d="M 179.5 107.5 L 216.5 107.5 216.5 144.5 179.5 144.5 z"/><path fill="rgb(96, 96, 96)" stroke="none" d="M 287.5 107.5 L 324.5 107.5 324.5 144.5 287.5 144.5 z"/><path fill="rgb(96, 96, 96)" stroke="none" d="M 323.5 107.5 L 360.5 107.5 360.5 144.5 323.5 144.5 z"/></g><g shape-rendering="auto"><path fill="rgb(96, 96, 96)" stroke="none" d="M 56.16 18.125 A 2.16 2.16 0 1 1 56.16 18 z"/><path fill="rgb(96, 96, 96)" stroke="none" d="M 164.16 18.125 A 2.16 2.16 0 1 1 164.16 18 z"/><path fill="rgb(96, 96, 96)" stroke="none" d="M 200.16 18.125 A 2.16 2.16 0 1 1 200.16 18 z"/><path fill="rgb(96, 96, 96)" stroke="none" d="M 308.16 18.125 A 2.16 2.16 0 1 1 308.16 18 z"/><path fill="rgb(96, 96, 96)" stroke="none" d="M 56.16 54.125 A 2.16 2.16 0 1 1 56.16 54 z"/><path fill="rgb(96, 96, 96)" stroke="none" d="M 92.16 54.125 A 2.16 2.16 0 1 1 92.16 54 z"/><path fill="rgb(96, 96, 96)" stroke="none" d="M 128.16 54.125 A 2.16 2.16 0 1 1 128.16 54 z"/><path fill="rgb(96, 96, 96)" stroke="none" d="M 236.16 54.125 A 2.16 2.16 0 1 1 236.16 54 z"/><path fill="rgb(96, 96, 96)" stroke="none" d="M 272.16 54.125 A 2.16 2.16 0 1 1 272.16 54 z"/><path fill="rgb(96, 96, 96)" stroke="none" d="M 308.16 54.125 A 2.16 2.16 0 1 1 308.16 54 z"/><path fill="rgb(96, 96, 96)" stroke="none" d="M 20.16 90.125 A 2.16 2.16 0 1 1 20.16 90 z"/><path fill="rgb(96, 96, 96)" stroke="none" d="M 56.16 90.125 A 2.16 2.16 0 1 1 56.16 90 z"/><path fill="rgb(96, 96, 96)" stroke="none" d="M 164.16 90.125 A 2.16 2.16 0 1 1 164.16 90 z"/><path fill="rgb(96, 96, 96)" stroke="none" d="M 200.16 90.125 A 2.16 2.16 0 1 1 200.16 90 z"/><path fill="rgb(96, 96, 96)" stroke="none" d="M 308.16 90.125 A 2.16 2.16 0 1 1 308.16 90 z"/><path fill="rgb(96, 96, 96)" stroke="none" d="M 344.16 90.125 A 2.16 2.16 0 1 1 344.16 90 z"/><path fill="rgb(96, 96, 96)" stroke="none" d="M 56.16 126.125 A 2.16 2.16 0 1 1 56.16 126 z"/><path fill="rgb(96, 96, 96)" stroke="none" d="M 92.16 126.125 A 2.16 2.16 0 1 1 92.16 126 z"/><path fill="rgb(96, 96, 96)" stroke="none" d="M 128.16 126.125 A 2.16 2.16 0 1 1 128.16 126 z"/><path fill="rgb(96, 96, 96)" stroke="none" d="M 236.16 126.125 A 2.16 2.16 0 1 1 236.16 126 z"/><path fill="rgb(96, 96, 96)" stroke="none" d="M 272.16 126.125 A 2.16 2.16 0 1 1 272.16 126 z"/></g><g shape-rendering="crispEdges"><path fill="none" stroke="rgb( 48,  48,  48)" d="M 36 0 L 36 360" stroke-width="1"/><path fill="none" stroke="rgb( 48,  48,  48)" d="M 72 0 L 72 360" stroke-width="1"/><path fill="none" stroke="rgb( 48,  48,  48)" d="M 108 0 L 108 360" stroke-width="1"/><path fill="none" stroke="rgb( 48,  48,  48)" d="M 144 0 L 144 360" stroke-width="1"/><path fill="none" stroke="rgb( 48,  48,  48)" d="M 180 0 L 180 360" stroke-width="1"/><path fill="none" stroke="rgb( 48,  48,  48)" d="M 216 0 L 216 360" stroke-width="1"/><path fill="none" stroke="rgb( 48,  48,  48)" d="M 252 0 L 252 360" stroke-width="1"/><path fill="none" stroke="rgb( 48,  48,  48)" d="M 288 0 L 288 360" stroke-width="1"/><path fill="none" stroke="rgb( 48,  48,  48)" d="M 324 0 L 324 360" stroke-width="1"/><path fill="none" stroke="rgb( 48,  48,  48)" d="M 0 36 L 360 36" stroke-width="1"/><path fill="none" stroke="rgb( 48,  48,  48)" d="M 0 72 L 360 72" stroke-width="1"/><path fill="none" stroke="rgb( 48,  48,  48)" d="M 0 108 L 360 108" stroke-width="1"/><path fill="none" stroke="rgb( 48,  48,  48)" d="M 0 144 L 360 144" stroke-width="1"/><path fill="none" stroke="rgb( 48,  48,  48)" d="M 0 180 L 360 180" stroke-width="1"/><path fill="none" stroke="rgb( 48,  48,  48)" d="M 0 216 L 360 216" stroke-width="1"/><path fill="none" stroke="rgb( 48,  48,  48)" d="M 0 252 L 360 252" stroke-width="1"/><path fill="none" stroke="rgb( 48,  48,  48)" d="M 0 288 L 360 288" stroke-width="1"/><path fill="none" stroke="rgb( 48,  48,  48)" d="M 0 324 L 360 324" stroke-width="1"/></g><g shape-rendering="crispEdges"><path fill="black" stroke="none" d="M 34 -2 L 38 -2 38 38 34 38 z"/><path fill="black" stroke="none" d="M 142 -2 L 146 -2 146 38 142 38 z"/><path fill="black" stroke="none" d="M 178 -2 L 182 -2 182 38 178 38 z"/><path fill="black" stroke="none" d="M 250 -2 L 254 -2 254 38 250 38 z"/><path fill="black" stroke="none" d="M 34 34 L 74 34 74 38 34 38 z"/><path fill="black" stroke="none" d="M 70 34 L 110 34 110 38 70 38 z"/><path fill="black" stroke="none" d="M 106 34 L 146 34 146 38 106 38 z"/><path fill="black" stroke="none" d="M 286 34 L 326 34 326 38 286 38 z"/><path fill="black" stroke="none" d="M 322 34 L 362 34 362 38 322 38 z"/><path fill="black" stroke="none" d="M 34 34 L 38 34 38 74 34 74 z"/><path fill="black" stroke="none" d="M 142 34 L 146 34 146 74 142 74 z"/><path fill="black" stroke="none" d="M 178 34 L 182 34 182 74 178 74 z"/><path fill="black" stroke="none" d="M 250 34 L 254 34 254 74 250 74 z"/><path fill="black" stroke="none" d="M 286 34 L 290 34 290 74 286 74 z"/><path fill="black" stroke="none" d="M 322 34 L 326 34 326 74 322 74 z"/><path fill="black" stroke="none" d="M -2 70 L 38 70 38 74 -2 74 z"/><path fill="black" stroke="none" d="M 34 70 L 74 70 74 74 34 74 z"/><path fill="black" stroke="none" d="M 214 70 L 254 70 254 74 214 74 z"/><path fill="black" stroke="none" d="M 250 70 L 290 70 290 74 250 74 z"/><path fill="black" stroke="none" d="M 34 70 L 38 70 38 110 34 110 z"/><path fill="black" stroke="none" d="M 70 70 L 74 70 74 110 70 110 z"/><path fill="black" stroke="none" d="M 142 70 L 146 70 146 110 142 110 z"/><path fill="black" stroke="none" d="M 178 70 L 182 70 182 110 178 110 z"/><path fill="black" stroke="none" d="M 214 70 L 218 70 218 110 214 110 z"/><path fill="black" stroke="none" d="M 250 70 L 254 70 254 110 250 110 z"/><path fill="black" stroke="none" d="M 322 70 L 326 70 326 110 322 110 z"/><path fill="black" stroke="none" d="M 70 106 L 110 106 110 110 70 110 z"/><path fill="black" stroke="none" d="M 106 106 L 146 106 146 110 106 110 z"/><path fill="black" stroke="none" d="M 178 106 L 218 106 218 110 178 110 z"/><path fill="black" stroke="none" d="M 34 106 L 38 106 38 146 34 146 z"/><path fill="black" stroke="none" d="M 142 106 L 146 106 146 146 142 146 z"/><path fill="black" stroke="none" d="M 178 106 L 182 106 182 146 178 146 z"/><path fill="black" stroke="none" d="M 250 106 L 254 106 254 146 250 146 z"/><path fill="black" stroke="none" d="M 322 106 L 326 106 326 146 322 146 z"/><path fill="black" stroke="none" d="M 250 142 L 290 142 290 146 250 146 z"/><path fill="black" stroke="none" d="M 286 142 L 326 142 326 146 286 146 z"/><path fill="black" stroke="none" d="M 322 142 L 362 142 362 146 322 146 z"/><path fill="black" stroke="none" d="M 34 142 L 38 142 38 182 34 182 z"/><path fill="black" stroke="none" d="M 142 142 L 146 142 146 182 142 182 z"/><path fill="black" stroke="none" d="M 178 142 L 182 142 182 182 178 182 z"/><path fill="black" stroke="none" d="M 250 142 L 254 142 254 182 250 182 z"/><path fill="black" stroke="none" d="M 286 142 L 290 142 290 182 286 182 z"/><path fill="black" stroke="none" d="M -2 178 L 38 178 38 182 -2 182 z"/><path fill="black" stroke="none" d="M 34 178 L 74 178 74 182 34 182 z"/><path fill="black" stroke="none" d="M 70 178 L 110 178 110 182 70 182 z"/><path fill="black" stroke="none" d="M 106 178 L 146 178 146 182 106 182 z"/><path fill="black" stroke="none" d="M 142 178 L 182 178 182 182 142 182 z"/><path fill="black" stroke="none" d="M 178 178 L 218 178 218 182 178 182 z"/><path fill="black" stroke="none" d="M 214 178 L 254 178 254 182 214 182 z"/><path fill="black" stroke="none" d="M 34 178 L 38 178 38 218 34 218 z"/><path fill="black" stroke="none" d="M 106 178 L 110 178 110 218 106 218 z"/><path fill="black" stroke="none" d="M 178 178 L 182 178 182 218 178 218 z"/><path fill="black" stroke="none" d="M 250 178 L 254 178 254 218 250 218 z"/><path fill="black" stroke="none" d="M 286 178 L 290 178 290 218 286 218 z"/><path fill="black" stroke="none" d="M 34 214 L 74 214 74 218 34 218 z"/><path fill="black" stroke="none" d="M 142 214 L 182 214 182 218 142 218 z"/><path fill="black" stroke="none" d="M 250 214 L 290 214 290 218 250 218 z"/><path fill="black" stroke="none" d="M 286 214 L 326 214 326 218 286 218 z"/><path fill="black" stroke="none" d="M 70 214 L 74 214 74 254 70 254 z"/><path fill="black" stroke="none" d="M 106 214 L 110 214 110 254 106 254 z"/><path fill="black" stroke="none" d="M 142 214 L 146 214 146 254 142 254 z"/><path fill="black" stroke="none" d="M 178 214 L 182 214 182 254 178 254 z"/><path fill="black" stroke="none" d="M 250 214 L 254 214 254 254 250 254 z"/><path fill="black" stroke="none" d="M 322 214 L 326 214 326 254 322 254 z"/><path fill="black" stroke="none" d="M -2 250 L 38 250 38 254 -2 254 z"/><path fill="black" stroke="none" d="M 34 250 L 74 250 74 254 34 254 z"/><path fill="black" stroke="none" d="M 178 250 L 218 250 218 254 178 254 z"/><path fill="black" stroke="none" d="M 322 250 L 362 250 362 254 322 254 z"/><path fill="black" stroke="none" d="M 70 250 L 74 250 74 290 70 290 z"/><path fill="black" stroke="none" d="M 106 250 L 110 250 110 290 106 290 z"/><path fill="black" stroke="none" d="M 142 250 L 146 250 146 290 142 290 z"/><path fill="black" stroke="none" d="M 214 250 L 218 250 218 290 214 290 z"/><path fill="black" stroke="none" d="M 250 250 L 254 250 254 290 250 290 z"/><path fill="black" stroke="none" d="M 322 250 L 326 250 326 290 322 290 z"/><path fill="black" stroke="none" d="M 106 286 L 146 286 146 290 106 290 z"/><path fill="black" stroke="none" d="M 142 286 L 182 286 182 290 142 290 z"/><path fill="black" stroke="none" d="M 214 286 L 254 286 254 290 214 290 z"/><path fill="black" stroke="none" d="M 250 286 L 290 286 290 290 250 290 z"/><path fill="black" stroke="none" d="M 70 286 L 74 286 74 326 70 326 z"/><path fill="black" stroke="none" d="M 106 286 L 110 286 110 326 106 326 z"/><path fill="black" stroke="none" d="M 178 286 L 182 286 182 326 178 326 z"/><path fill="black" stroke="none" d="M 214 286 L 218 286 218 326 214 326 z"/><path fill="black" stroke="none" d="M 286 286 L 290 286 290 326 286 326 z"/><path fill="black" stroke="none" d="M 322 286 L 326 286 326 326 322 326 z"/><path fill="black" stroke="none" d="M -2 322 L 38 322 38 326 -2 326 z"/><path fill="black" stroke="none" d="M 34 322 L 74 322 74 326 34 326 z"/><path fill="black" stroke="none" d="M 286 322 L 326 322 326 326 286 326 z"/><path fill="black" stroke="none" d="M 106 322 L 110 322 110 362 106 362 z"/><path fill="black" stroke="none" d="M 178 322 L 182 322 182 362 178 362 z"/><path fill="black" stroke="none" d="M 214 322 L 218 322 218 362 214 362 z"/></g><g shape-rendering="crispEdges"><path fill="black" stroke="none" d="M -2 -2 L 2 -2 2 362 -2 362 z"/><path fill="black" stroke="none" d="M 358 -2 L 362 -2 362 362 358 362 z"/><path fill="black" stroke="none" d="M -2 -2 L 362 -2 362 2 -2 2 z"/><path fill="black" stroke="none" d="M -2 358 L 362 358 362 362 -2 362 z"/></g></svg>